<svg id="Capa_1" data-name="Capa 1" xmlns="http://www.w3.org/2000/svg" viewBox="0 0 1856.7 785"><defs><style>.cls-1{font-size:319.72px;font-family:AgencyFB-Bold, Agency FB;font-weight:700;}.cls-2{fill:#333;}.cls-3{fill:#1a1a1a;}.cls-4{font-size:93.2px;font-family:AgencyFB-Reg, Agency FB;}</style></defs><text class="cls-1" transform="translate(722.7 544.5) scale(1)">MASHI</text><ellipse class="cls-2" cx="114.4" cy="102.6" rx="100.6" ry="91.7"/><ellipse class="cls-3" cx="605.4" cy="91.7" rx="100.6" ry="91.7"/><polygon class="cls-2" points="218.2 213.6 0 213.6 0 579 218.2 785 218.2 213.6"/><polygon class="cls-3" points="705.1 213.6 486.9 213.6 486.9 785 705.1 579 705.1 213.6"/><polygon points="0 213.6 218.2 503.6 218.2 213.6 0 213.6"/><polygon points="705.1 213.6 486.9 213.6 486.9 503.6 705.1 213.6"/><polygon class="cls-3" points="705.1 213.6 352.6 584.4 243.4 469.7 486.9 213.6 705.1 213.6"/><polygon class="cls-2" points="0 213.6 352.6 584.4 461.7 469.7 218.2 213.6 0 213.6"/><polygon points="352.6 354.9 461.7 469.7 372.3 334.1 352.6 354.9"/><text class="cls-4" transform="translate(739.2 633.8) scale(0.8 1)">CAJA DE AHORRO Y CREDITO</text></svg>