<svg id="Capa_1" data-name="Capa 1" xmlns="http://www.w3.org/2000/svg" viewBox="0 0 11797.8 12911.4"><defs><style>.cls-1{fill:#333;}.cls-2{fill:#1a1a1a;}</style></defs><ellipse class="cls-1" cx="1911.7" cy="1686.9" rx="1680.8" ry="1509"/><ellipse class="cls-2" cx="10117" cy="1509" rx="1680.8" ry="1509"/><polygon class="cls-1" points="3647.1 3513.9 0 3513.9 0 9522.7 3647.1 12911.4 3647.1 3513.9"/><polygon class="cls-2" points="11782.9 3513.9 8135.8 3513.9 8135.8 12911.4 11782.9 9522.7 11782.9 3513.9"/><polygon points="0 3513.9 3647.1 8283.5 3647.1 3513.9 0 3513.9"/><polygon points="11782.9 3513.9 8135.8 3513.9 8135.8 8283.5 11782.9 3513.9"/><polygon class="cls-2" points="11782.9 3513.9 5891.5 9612.6 4067.9 7724.9 8135.8 3513.9 11782.9 3513.9"/><polygon class="cls-1" points="0 3513.9 5891.5 9612.6 7715 7724.9 3647.1 3513.9 0 3513.9"/><polygon points="5891.5 5837.2 7715 7724.9 6221.3 5495.8 5891.5 5837.2"/></svg>