<?xml version="1.0" encoding="UTF-8"?>
<!-- Generator: Adobe Illustrator 25.3.1, SVG Export Plug-In . SVG Version: 6.00 Build 0)  -->
<svg xmlns="http://www.w3.org/2000/svg" xmlns:xlink="http://www.w3.org/1999/xlink" version="1.1" id="Capa_1" x="0px" y="0px" viewBox="0 0 512 512" style="enable-background:new 0 0 512 512;" xml:space="preserve" width="512" height="512">
<g>
	<g>
		<g>
			<g>
				<path style="fill:#FF8EDE;" d="M410.474,241.536c-16.914-39.937-57.741-71.387-106.543-82.072      c-13.938-3.061-27.897-4.617-41.493-4.637c-4.802-14.939-15.734-26.531-29.901-30.647c-1.827-0.534-3.551-0.805-5.125-0.805      c-3.19,0-5.838,1.08-7.867,3.206c-3.225,3.379-4.667,9.202-4.286,17.311c0.289,6.161,0.691,11.91,1.199,17.269      c-23.248,6.974-42.247,19.527-55.479,36.691l-39.192-2.78c-0.474-0.035-0.943-0.054-1.41-0.054      c-8.077,0-14.86,5.222-16.464,12.575l-13.738,48.815c-1.75,7.973,2.865,15.953,10.973,18.976l43.084,16.03      c1.717,5.986,4.04,11.923,6.926,17.688l-25.864,51.453c-1.106,2.169-1.744,4.484-1.892,6.842      c-0.529,6.558,2.53,12.927,7.991,16.628l24.722,16.684c3.048,2.071,6.602,3.167,10.279,3.167c5.259,0,10.274-2.262,13.761-6.206      l27.412-31.072c14.512,8.221,30.328,14.267,47.062,17.933c12.07,2.647,24.367,3.988,36.55,3.988c4.573,0,9.168-0.222,13.707-0.6      l11.91,39.692c1.126,3.731,3.346,6.938,6.403,9.261c3.159,2.451,7.113,3.801,11.133,3.801c1.009,0,2.028-0.084,3.023-0.252      l29.446-4.818c9.078-1.516,15.675-9.583,15.347-18.759l-1.975-57.58c18.965-15.164,31.573-34.899,36.464-57.16      C420.979,282.21,418.847,261.266,410.474,241.536z"/>
				<path style="fill:#FC09B2;" d="M168.684,258.598c-1.849,8.437,6.139,17.354,17.841,19.919      c11.702,2.564,22.687-2.196,24.536-10.633c1.848-8.437-6.139-17.354-17.841-19.918      C181.518,245.4,170.533,250.161,168.684,258.598z"/>
				<g style="opacity:0.5;">
					<path style="fill:#FC09B2;" d="M408.492,242.378c-29.444,5.753-37.274,25.439-47.321,50.057       c-6.316,15.477-14.716,30.694-27.047,42.214c-8.964,8.374-19.915,14.252-31.952,16.722       c-11.164,2.291-22.703,1.742-33.884-0.134c-22.037-3.698-40.526-11.792-61.674-16.298       c-35.268-7.515-14.56,25.234-68.843,31.393c-4.055,0.46-8.208,0.519-12.228,1.239c-0.455,5.646,2.092,11.314,7.052,14.673       l24.727,16.688c6.745,4.583,15.826,3.418,21.221-2.684c1.347-1.474-7.074,7.74,27.289-29.858       c40.96,23.833,93.198,28.148,141.357,8.049c2.388,8.756,2.938,13.214,3.816,18.845c2.711,18.044-10.55,32.787-26.35,41.825       c-0.052,0.012-0.086,0.054-0.138,0.068c3.427,2.657,7.925,3.888,12.492,3.128l29.438-4.82       c8.044-1.342,13.846-8.406,13.555-16.562l-1.371-58.502C414.812,330.03,426.525,284.817,408.492,242.378z"/>
					<path style="fill:#FC09B2;" d="M141.939,244.453c-14.32,11.29-31.883,13.754-48.395,7.9c-0.662,2.354-1.271,4.516-1.271,4.516       c-1.504,6.854,2.579,13.874,9.625,16.501l44.361,17.367c-5.291-19.126-4.204-35.046-2.646-45.36       C143.754,244.444,142.681,243.868,141.939,244.453z"/>
					<path style="fill:#FC09B2;" d="M241.096,212.178c-8.935,0.389-14.196-9.075-17.466-21.257       c10.406-16.031,28.224-14.481,22.969-37.023c-0.782-3.35-6.716-14.682-1.833-21.174c11.268,8.606,17.635,22.835,18.162,37.276       C263.382,182.542,257.715,211.419,241.096,212.178z"/>
				</g>
			</g>
			<g>
				<path style="fill:#000E3F;" d="M121.329,211.049c-3.672-1.267-7.885,1.29-9.411,5.713c-1.526,4.422,0.213,9.034,3.885,10.301      c3.672,1.267,7.885-1.291,9.411-5.713C126.74,216.927,125,212.315,121.329,211.049z"/>
				<path style="fill:#000E3F;" d="M192.38,213.96c-6.328-1.385-12.609,2.627-13.994,8.979c-1.385,6.328,2.627,12.608,8.955,13.994      c6.352,1.385,12.633-2.627,14.018-8.979C202.744,221.626,198.732,215.345,192.38,213.96z"/>
				<path style="fill:#000E3F;" d="M294.445,178.522c-1.146-0.048-2.197,0.836-2.269,2.03c-0.072,1.17,0.836,2.197,2.006,2.269      c33.91,1.982,61.587,19.868,74.029,47.832c0.358,0.788,1.146,1.266,1.958,1.266c0.31,0,0.597-0.048,0.884-0.191      c1.075-0.478,1.576-1.743,1.075-2.818C359.232,199.895,329.453,180.576,294.445,178.522z"/>
				<path style="fill:#000E3F;" d="M510.633,318.342c-1.098-0.43-2.34,0.119-2.77,1.218c-3.391,8.597-10.674,13.922-19.057,13.922      h-0.119c-1.719,0-3.367-0.239-4.943-0.669c4.346-6.424,6.782-15.57,6.137-23.474c-0.525-6.448-3.797-12.155-8.334-14.495      c-3.248-1.696-6.973-1.481-10.436,0.573c-7.857,4.657-8.239,17.695-5.493,24.931c2.34,6.185,6.304,11.033,11.176,14.042      c-5.134,4.967-12.131,7.88-19.343,7.88h-0.095c-2.579-0.024-5.039-0.406-7.331-1.098c2.269-2.818,3.964-6.281,4.991-10.269      c2.412-9.409-0.621-17.886-4.681-22.113c-2.698-2.794-6.018-4.012-9.098-3.367c-3.654,0.788-6.758,3.988-8.478,8.764      c-2.054,5.731-2.293,15.14,3.773,22.83c1.648,2.101,3.654,3.893,5.898,5.325c-2.985,1.934-6.567,2.961-10.651,3.033h-0.263      c-8.621,0-19.08-5.087-23.737-14.686c5.086-8.764,8.764-18.221,10.961-28.131c4.442-20.322,2.269-41.719-6.281-61.874      c-17.194-40.549-58.602-72.477-108.082-83.318c-13.54-2.961-27.128-4.537-40.382-4.657      c-5.254-14.901-16.477-26.412-30.853-30.591c-2.03-0.597-3.964-0.884-5.731-0.884c-3.749,0-6.997,1.337-9.433,3.869      c-3.63,3.821-5.278,10.173-4.872,18.889c0.263,5.588,0.621,10.842,1.051,15.761c-9.146,2.889-17.695,6.663-25.504,11.248      c-11.271,6.615-20.871,14.925-28.561,24.62l-38.161-2.698c-0.501-0.024-1.027-0.048-1.552-0.048      c-9.051,0-16.668,5.851-18.579,14.257L91.08,245.269l-2.937,10.436c-0.024,0.072-0.048,0.167-0.072,0.239      c-1.958,8.883,3.343,18.101,12.322,21.445l25.194,9.385l16.859,6.28c0.01,0.01,0.018,0.019,0.027,0.029      c1.613,5.398,3.706,10.775,6.277,16.019l-25.385,50.507c-1.218,2.412-1.934,4.991-2.102,7.69      c-0.597,7.26,2.818,14.376,8.931,18.507l24.716,16.692c3.391,2.316,7.379,3.534,11.486,3.534c5.874,0,11.462-2.531,15.355-6.925      l26.268-29.779c14.28,7.904,29.803,13.731,46.137,17.313c12.227,2.675,24.668,4.036,37.014,4.036      c4.036,0,8.119-0.167,12.155-0.454l11.415,37.994c1.266,4.179,3.725,7.761,7.164,10.388c3.51,2.722,7.928,4.227,12.418,4.227      c1.146,0,2.269-0.095,3.391-0.287l29.421-4.824c10.149-1.696,17.528-10.698,17.17-20.943l-1.958-56.525      c9.17-7.403,16.836-15.928,22.853-25.313c5.851,9.719,16.788,14.734,26.316,14.734h0.31c5.803-0.072,10.866-1.887,14.877-5.134      c3.248,1.313,6.854,2.006,10.627,2.03h0.119c8.836,0,17.409-3.773,23.427-10.197c2.46,0.908,5.063,1.409,7.785,1.409h0.143      c10.197,0,19.009-6.352,23.044-16.645C512.28,320.014,511.755,318.772,510.633,318.342z M402.98,330.378      c-5.707,9.433-13.039,17.886-21.659,25.17c-0.604,0.508-1.576,1.162-2.419,1.765c-0.61,0.436-0.952,1.139-0.925,1.888      c0.284,8.027,1.911,54.348,2.031,57.719v0.191c0.191,8.095-5.588,15.021-13.564,16.382l-29.444,4.8      c-0.884,0.167-1.791,0.239-2.675,0.239c-3.606,0-7.045-1.218-9.815-3.367c-2.603-1.982-4.633-4.8-5.66-8.167l-10.985-36.704      l-0.979-3.343c-0.215-0.74-0.907-1.218-1.672-1.17c-0.979,0.072-2.293,0.167-3.033,0.215c-3.63,0.263-7.307,0.382-11.009,0.382      c-11.797,0-23.904-1.266-36.083-3.94c-16.048-3.51-30.901-9.17-44.274-16.454c-2.842-1.552-3.176-2.269-4.513-0.907      c-5.134,5.301-27.749,31.164-27.749,31.164c-3.2,3.606-7.642,5.492-12.155,5.492c-3.152,0-6.304-0.907-9.075-2.794      l-24.74-16.692c-4.943-3.367-7.498-9.027-7.045-14.686c0.143-2.03,0.692-4.083,1.672-6.018      c0.12-0.239,23.749-46.802,26.138-51.967c0.132-0.285,0.119-0.599-0.023-0.879c-2.38-4.672-4.359-9.642-5.977-14.559      c11.372-0.079,20.537-4.649,26.644-13.573c0.74-1.098,0.454-2.579-0.621-3.319c-1.098-0.74-2.579-0.478-3.319,0.621      c-4.748,6.93-11.076,10.164-17.812,11.175c-4.004,0.601-8.088,0.075-11.886-1.328c-9.364-3.46-28.227-10.432-38.457-14.336      c-7.045-2.627-11.128-9.648-9.624-16.501l13.707-48.692c1.409-6.495,7.427-11.009,14.4-11.009c0.406,0,0.812,0.024,1.242,0.048      c42.459,2.794,40.191,3.104,40.883,2.197c11.2-14.83,28.919-27.773,52.083-35.271c2.34,22.591,6.734,37.659,13.23,45.587      c0.955,1.17,2.818,1.098,3.582-0.191c0-0.024,0.024-0.048,0.048-0.095c0.43-0.764,0.263-1.719-0.31-2.412      c-7.379-8.907-10.77-28.011-12.394-44.178c-0.143-1.481-0.286-2.937-0.382-4.37c-0.501-5.684-0.764-10.794-0.955-14.686      c-0.478-10.101,1.982-18.268,10.006-18.268c1.337,0,2.842,0.215,4.513,0.716c13.182,3.821,22.686,14.042,27.462,26.483      c2.658,6.819,3.177,11.734,3.334,14.318c0.071,1.16,1.049,2.034,2.21,1.995c1.212-0.041,2.175-1.085,2.074-2.293      c-0.288-3.445-0.869-6.613-1.696-9.722c12.465,0.191,25.265,1.695,38.161,4.537c50.053,10.961,88.882,42.698,105.025,80.811      c7.976,18.794,10.436,39.14,6.042,59.271c-1.887,8.549-4.895,16.621-8.883,24.119      C404.795,327.345,403.912,328.874,402.98,330.378z M445.893,339.405c-2.34-1.289-4.37-2.985-5.994-5.039      c-4.967-6.304-4.776-14.018-3.081-18.722c1.194-3.296,3.176-5.54,5.325-6.018c0.287-0.048,0.549-0.072,0.812-0.072      c1.839,0,3.439,1.337,4.275,2.197c3.248,3.391,5.636,10.292,3.63,18.077C449.857,333.697,448.162,336.921,445.893,339.405z       M479.66,331.118c-4.37-2.436-7.88-6.663-10.03-12.298c-2.436-6.472-1.361-16.716,3.678-19.701      c1.242-0.74,2.46-1.099,3.63-1.099c0.907,0,1.791,0.215,2.651,0.645c3.128,1.624,5.612,6.161,5.994,11.033      C486.179,316.886,483.744,325.554,479.66,331.118z"/>
			</g>
		</g>
		<g>
			<g>
				<path style="fill:#91D728;" d="M314.838,266.212c-0.119,4.49-1.719,7.57-3.582,11.128l-0.382,0.74      c-1.266,2.46-3.51,3.534-6.089,2.985c-0.788-0.191-1.6-0.502-2.531-0.979c-2.603-1.337-3.988-1.982-5.134-2.507      c-0.907-0.406-1.672-0.764-2.699-1.314c-6.997-3.63-5.23-8.382-4.298-10.913c0.215-0.573,0.597-1.6,0.525-1.887      c0,0-0.143-0.263-0.931-0.669c-0.143-0.072-0.286-0.143-0.478-0.167c-1.218-0.263-3.033,0.215-3.558,1.242      c-2.078,3.964,1.504,10.483,3.892,14.782l0.836,1.528c0.764,1.481,1.528,2.937,2.173,4.418      c4.466,9.982,4.657,18.579,0.669,26.316c-2.961,5.66-7.737,9.098-14.615,10.507c-0.096,0.024-0.263,0.072-0.478,0.095      c-1.409,0.263-4.991,0.573-7.403,0.597c-1.027,1.934-2.746,5.182-3.534,6.495l0.024,0.024c-1.027,1.958-2.722,3.009-4.728,3.057      c-0.549,0.024-1.099-0.048-1.672-0.167c-0.86-0.167-1.743-0.525-2.722-1.027c-0.31-0.167-2.698-1.361-4.68-2.364      c-1.624-0.788-2.436-1.194-2.866-1.433c-2.077-1.075-3.319-2.412-3.821-4.06c-0.716-2.507,0.573-4.681,1.719-6.615      c1.767-3.009,1.839-3.701,0.525-4.967c-4.895-5.063-6.925-9.862-6.471-15.212c0.31-4.036,2.006-8,4.657-13.11      c1.505-2.89,3.367-6.495,7.666-5.564c1.982,0.43,4.179,1.791,7.857,4.155c0.621,0.406,1.313,0.764,1.958,1.098      c1.552,0.812,3.176,1.648,4.251,3.033c1.027,1.29,1.91,3.51,0.263,6.663c-0.263,0.549-0.501,1.051-0.74,1.552      c-0.287,0.597-0.573,1.194-0.884,1.839c-0.382,0.717-0.74,1.719-0.382,2.46c0.287,0.645,1.099,1.17,2.102,1.385      c1.266,0.286,2.412-0.024,2.651-0.478c2.603-4.991-0.143-11.081-3.319-18.149c-4.179-9.337-8.931-19.892-2.89-31.474      c4.036-7.761,12.442-11.367,22.71-9.815c1.122-2.197,1.791-3.94,2.316-5.325c0.931-2.508,2.101-5.612,5.994-4.752      c1.409,0.286,3.128,1.17,5.779,2.555c0.048,0,9.887,4.227,9.887,8.525v0.024c0,0.358-0.095,0.74-0.239,1.075      c-1.457,3.081-2.627,5.182-3.487,6.71c-0.287,0.525-0.573,1.027-0.788,1.457C313.668,254.033,314.982,262.009,314.838,266.212z"/>
				<path style="opacity:0.5;fill:#FFFFFF;" d="M279,260.046l-0.399,0.581c-2.573,5.877-2.186,4.963-2.282,5.15l-0.15,0.292      c-0.782,1.52-3.049,1.184-3.36-0.505c-1.915-10.758,5.476-17.723,14.733-16.796c3.252,0.376,9.852,2.32,8.016,5.032      c-0.315,0.466-0.822,0.725-1.345,0.744C288.416,254.758,281.983,254.579,279,260.046z"/>
				<path style="opacity:0.25;fill:#000E3F;" d="M291.483,310.104c-2.531,4.824-6.543,8.167-13.421,9.6      c-0.31,0.096-0.191,0.812,0.096,1.815c-1.409,0.263-4.991,0.573-7.403,0.597c-1.027,1.934-2.746,5.182-3.534,6.495l0.024,0.024      c-1.027,1.958-2.722,3.009-4.728,3.057c-1.624-0.884-3.104-1.743-4.083-2.245c-0.191-0.119-7.904-3.964-7.928-3.988      c-8.191-4.251,5.373-9.743-0.979-15.904c-4.776-4.919-6.352-9.242-5.946-13.707c9.624,0.43,15.451,10.579,24.501,13.015      c12.824,3.463,22.233-12.203,22.639-23.928C294.325,293.029,295.877,301.626,291.483,310.104z"/>
			</g>
			<path style="fill:#000E3F;" d="M262.356,333.856c-0.64,0-1.302-0.072-1.98-0.221c-0.001,0-0.002,0-0.003,0     c-1.054-0.233-2.118-0.634-3.251-1.229c-0.267-0.14-2.021-1.019-3.759-1.891l-0.894-0.448c-1.4-0.699-2.206-1.105-2.696-1.364     c-0.066-0.026-0.132-0.056-0.197-0.089c-2.591-1.346-4.23-3.158-4.873-5.38c-0.976-3.388,0.694-6.229,1.913-8.3     c0.725-1.238,1.005-1.837,1.097-2.124c-0.046-0.051-0.11-0.119-0.202-0.208c-5.397-5.571-7.643-10.937-7.117-16.933     c0.334-4.38,2.12-8.575,4.892-13.918c1.535-2.978,4.099-7.973,10.024-6.672c2.343,0.513,4.664,1.952,8.567,4.449     c0.54,0.345,1.123,0.644,1.693,0.94c0.247,0.128,0.497,0.259,0.746,0.389c-4.11-9.16-8.861-20.431-2.506-32.595     c4.23-8.141,12.9-12.232,23.361-11.154c0.697-1.479,1.165-2.717,1.557-3.757c0.9-2.383,2.779-7.339,8.463-6.096     c1.683,0.368,3.51,1.29,6.32,2.761l-0.007,0.012c2.229,0.944,11.097,5.091,11.044,10.459c-0.006,0.676-0.161,1.357-0.448,1.968     c-1.448,3.09-2.622,5.196-3.491,6.744c4.937,4.681,6.551,11.947,6.385,17.071c-0.144,4.986-1.932,8.426-3.826,12.068     l-0.381,0.732c-1.738,3.335-4.9,4.872-8.465,4.083c-0.97-0.212-1.972-0.592-3.061-1.161c-2.523-1.311-3.884-1.931-5.003-2.442     c-0.969-0.441-1.761-0.805-2.842-1.369c-0.983-0.513-1.824-1.052-2.54-1.609c0.195,0.357,0.383,0.7,0.561,1.024l0.855,1.562     c0.661,1.243,1.505,2.864,2.262,4.573c4.731,10.604,4.927,19.82,0.596,28.169c-3.279,6.271-8.536,10.074-16.077,11.634     c-0.917,0.292-4.46,0.59-7.009,0.69c-1.329,2.5-2.259,4.209-2.825,5.187c-0.028,0.07-0.06,0.142-0.096,0.21     C267.721,332.356,265.263,333.856,262.356,333.856z M261.295,329.437c1.749,0.385,3.057-0.14,3.898-1.551     c0.044-0.126,0.103-0.25,0.173-0.368c0.562-0.942,1.735-3.099,3.486-6.411c0.368-0.697,1.09-1.136,1.88-1.145     c2.768-0.026,6.637-0.415,7.29-0.59c6.378-1.327,10.675-4.405,13.316-9.454c3.685-7.106,3.453-15.102-0.711-24.44     c-0.703-1.586-1.502-3.118-2.119-4.277l-0.83-1.518c-2.593-4.713-6.502-11.814-3.905-16.805c1.044-2.027,3.887-2.805,5.924-2.355     c0.378,0.081,0.728,0.208,1.034,0.373c0.915,0.473,1.525,1.005,1.83,1.609c0.057,0.114,0.105,0.233,0.141,0.355     c0.257,0.863,0.015,1.681-0.555,3.218c-0.964,2.598-2.052,5.527,3.257,8.295c1.003,0.522,1.736,0.858,2.607,1.257     c1.192,0.541,2.607,1.187,5.237,2.551c0.752,0.394,1.403,0.646,1.994,0.777c1.643,0.359,2.9-0.271,3.734-1.875l0.381-0.73     c1.801-3.463,3.226-6.203,3.342-10.212c0.119-3.682-1.034-10.912-6.108-14.718c-0.841-0.63-1.102-1.777-0.617-2.71     c0.216-0.415,0.505-0.933,0.79-1.446c0.872-1.553,2.026-3.61,3.443-6.635c0.059-2.001-4.989-5.259-8.482-6.714     c-0.071-0.028-0.141-0.058-0.209-0.096c-2.421-1.266-4.093-2.115-5.247-2.369c-1.722-0.371-2.306,0.203-3.519,3.414     c-0.546,1.446-1.225,3.246-2.425,5.557c-0.426,0.816-1.335,1.271-2.228,1.133c-9.398-1.408-16.868,1.749-20.474,8.692     c-5.567,10.653-1.237,20.282,2.949,29.594c3.268,7.26,6.352,14.113,3.263,20.03c-0.867,1.654-3.208,1.982-5.018,1.581     c-1.668-0.366-3.011-1.322-3.594-2.558c-0.402-0.858-0.655-2.309,0.414-4.373c0.316-0.611,0.583-1.182,0.849-1.754     c0.245-0.529,0.494-1.064,0.785-1.626c0.91-1.751,0.896-3.176-0.04-4.366c-0.798-1.017-2.136-1.712-3.553-2.449     c-0.772-0.401-1.473-0.767-2.121-1.182c-3.386-2.169-5.544-3.514-7.166-3.871c-2.329-0.499-3.456,0.896-5.285,4.445     c-2.529,4.872-4.149,8.624-4.429,12.299c-0.416,4.75,1.395,8.918,5.872,13.542c2.679,2.591,1.267,4.998-0.227,7.546     c-1.181,2.008-1.922,3.433-1.49,4.932c0.294,1.014,1.122,1.884,2.528,2.651c0.084,0.033,0.167,0.072,0.248,0.117     c0.43,0.235,1.216,0.629,2.784,1.413l0.896,0.45c1.777,0.889,3.568,1.789,3.835,1.929     C259.907,329.012,260.62,329.287,261.295,329.437L261.295,329.437z M269.216,297.07c0.117,0.063,0.29,0.135,0.525,0.187     c0.212,0.044,0.391,0.053,0.548,0.056c0.443-1.094,0.584-2.293,0.497-3.584c-0.139,0.287-0.271,0.572-0.402,0.854     c-0.291,0.627-0.582,1.248-0.927,1.917C269.328,296.743,269.255,296.934,269.216,297.07z M288.055,264.75     c-0.241,0.058-0.461,0.147-0.55,0.229c-0.368,0.718-0.427,1.649-0.277,2.696C287.428,266.487,287.788,265.47,288.055,264.75z"/>
		</g>
	</g>
	<g>
		<g>
			<path style="fill:#FD8A02;" d="M374.902,192.733c-8.827,0-17.397-2.586-24.785-7.479c-13.238-8.766-20.922-24.081-20.052-39.962     c0.435-7.975,2.99-15.704,7.39-22.353c8.352-12.61,22.382-20.14,37.529-20.14c8.827,0,17.397,2.586,24.786,7.481     c12.379,8.197,19.902,21.956,20.122,36.809c0.154,9.083-2.427,17.903-7.46,25.503     C404.078,185.206,390.049,192.733,374.902,192.733z"/>
			<path style="fill:#FFCF00;" d="M401.427,165.307c-9.685,14.624-29.4,18.629-44.023,8.945     c-7.898-5.231-12.681-13.368-13.887-22.051c-1.073-7.437,0.489-15.248,4.942-21.972c9.685-14.624,29.4-18.629,44.023-8.945     c9.65,6.391,14.661,17.13,14.182,27.911C406.422,154.765,404.722,160.332,401.427,165.307z"/>
			<g style="opacity:0.18;">
				<path style="fill:#000E3F;" d="M378.606,116.247c1.638,0.189,3.272,0.492,4.882,0.942l2.364-12.021      c0.265-1.348-0.615-2.647-1.959-2.919c-1.348-0.265-2.653,0.611-2.919,1.959L378.606,116.247z"/>
				<path style="fill:#000E3F;" d="M348.4,112.702l6.83,10.176c1.312-1.038,2.695-1.955,4.134-2.764l-6.837-10.185      c-0.759-1.136-2.31-1.442-3.451-0.677C347.94,110.016,347.635,111.561,348.4,112.702z"/>
				<path style="fill:#000E3F;" d="M366.199,117.257c1.599-0.455,3.227-0.788,4.875-0.991l-2.441-12.02      c-0.273-1.346-1.587-2.216-2.933-1.942c-1.346,0.273-2.216,1.587-1.942,2.933L366.199,117.257z"/>
				<path style="fill:#000E3F;" d="M348.454,130.236c0.464-0.701,0.97-1.352,1.478-2.003l-10.235-6.778      c-1.145-0.758-2.689-0.444-3.447,0.7c-0.758,1.145-0.444,2.689,0.7,3.447l10.235,6.778      C347.587,131.658,347.99,130.937,348.454,130.236z"/>
				<path style="fill:#000E3F;" d="M405.524,156.326l12.022,2.366c1.348,0.265,2.653-0.611,2.918-1.959      c0.269-1.349-0.614-2.649-1.959-2.919l-12.039-2.369C406.278,153.083,405.976,154.716,405.524,156.326z"/>
				<path style="fill:#000E3F;" d="M406.447,143.911l12.02-2.443c1.346-0.273,2.216-1.587,1.942-2.933      c-0.273-1.346-1.587-2.216-2.933-1.942l-12.02,2.443C405.913,140.633,406.243,142.261,406.447,143.911z"/>
				<path style="fill:#000E3F;" d="M402.6,132.201l10.185-6.835c1.137-0.764,1.442-2.31,0.677-3.45      c-0.759-1.131-2.31-1.442-3.45-0.677l-10.175,6.829C400.875,129.378,401.792,130.764,402.6,132.201z"/>
				<path style="fill:#000E3F;" d="M392.477,121.291c0.699,0.463,1.354,0.97,2.004,1.478l6.777-10.233      c0.758-1.145,0.444-2.689-0.7-3.447c-1.145-0.758-2.689-0.445-3.447,0.7l-6.777,10.233      C391.056,120.423,391.778,120.828,392.477,121.291z"/>
				<path style="fill:#000E3F;" d="M383.678,178.293c-1.599,0.455-3.227,0.788-4.875,0.99l2.441,12.021      c0.137,0.673,0.534,1.227,1.064,1.578c0.531,0.352,1.196,0.501,1.869,0.364c1.346-0.273,2.216-1.587,1.942-2.933      L383.678,178.293z"/>
				<path style="fill:#000E3F;" d="M401.475,182.851l-6.83-10.176c-1.312,1.037-2.695,1.954-4.136,2.762l6.839,10.187      c0.187,0.279,0.425,0.511,0.69,0.687c0.812,0.538,1.9,0.566,2.76-0.01C401.935,185.537,402.24,183.992,401.475,182.851z"/>
				<path style="fill:#000E3F;" d="M344.353,139.224l-12.022-2.365c-1.348-0.265-2.653,0.611-2.919,1.959      c-0.202,1.018,0.252,2.014,1.066,2.553c0.263,0.174,0.565,0.3,0.894,0.365l12.039,2.369      C343.599,142.467,343.901,140.834,344.353,139.224z"/>
				<path style="fill:#000E3F;" d="M371.27,179.304c-1.637-0.19-3.272-0.492-4.882-0.944l-2.365,12.022      c-0.202,1.018,0.251,2.014,1.066,2.553c0.263,0.174,0.565,0.3,0.894,0.365c1.348,0.265,2.653-0.611,2.918-1.959L371.27,179.304z      "/>
				<path style="fill:#000E3F;" d="M412.924,169.95l-10.235-6.778c-0.4,0.722-0.803,1.442-1.267,2.142      c-0.464,0.701-0.971,1.354-1.48,2.005l10.235,6.778c1.145,0.758,2.689,0.444,3.447-0.7      C414.383,172.252,414.069,170.709,412.924,169.95z"/>
				<path style="fill:#000E3F;" d="M343.429,151.639l-12.02,2.443c-1.346,0.273-2.216,1.587-1.942,2.933      c0.137,0.673,0.533,1.227,1.064,1.578c0.531,0.352,1.195,0.501,1.868,0.364l12.02-2.443      C343.964,154.917,343.634,153.289,343.429,151.639z"/>
				<path style="fill:#000E3F;" d="M347.277,163.348l-10.186,6.836c-1.137,0.764-1.442,2.309-0.677,3.45      c0.187,0.279,0.423,0.51,0.69,0.687c0.812,0.537,1.9,0.566,2.76-0.01l10.176-6.83      C349.002,166.172,348.085,164.786,347.277,163.348z"/>
				<path style="fill:#000E3F;" d="M357.399,174.259c-0.699-0.463-1.353-0.971-2.004-1.478l-6.777,10.233      c-0.758,1.145-0.444,2.689,0.7,3.447c1.145,0.758,2.689,0.444,3.447-0.7l6.777-10.233      C358.821,175.127,358.098,174.723,357.399,174.259z"/>
			</g>
			<g style="opacity:0.18;">
				<path style="fill:#000E3F;" d="M410.639,171.407c-13.055,19.713-39.623,25.111-59.335,12.056      c-13.128-8.694-19.897-23.381-19.093-38.055c4.266,1.366,7.866,3.883,11.307,6.792c1.206,8.683,5.989,16.82,13.887,22.051      c14.623,9.684,34.338,5.679,44.023-8.945c3.295-4.975,4.995-10.541,5.238-16.112c3.581-1.406,7.332-2.068,11.078-2.072      C417.884,155.465,415.596,163.923,410.639,171.407z"/>
			</g>
			<g style="opacity:0.5;">
				<path style="fill:#FD8A02;" d="M401.427,165.307c-9.685,14.624-29.4,18.629-44.023,8.945      c-7.898-5.231-12.681-13.368-13.887-22.051c7.68,6.509,14.317,14.948,24.671,16.471c14.579,2.1,21.516-8.976,32.204-16.209      c2.018-1.347,4.107-2.449,6.273-3.268C406.422,154.765,404.722,160.332,401.427,165.307z"/>
			</g>
		</g>
		<g>
			<path style="fill:#000E3F;" d="M378.244,159.062c-1.072,1.619-2.624,2.65-5.115,2.896c-0.438,0.089-3.129-0.017-3.319-0.143     c-0.226,0.34-1.584,2.312-1.807,2.649l-0.099,0.15c-0.4,0.604-1.051,0.768-2.106,0.069c-0.487-0.323-1.039-0.635-1.606-1.011     l-1.051-0.696c-2.75-1.821,2.266-3.262,0.243-5.687c-2.853-3.623-1.721-6.07,0.497-9.421c0.997-1.505,1.271-1.919,3.003-0.772     c0.567,0.376,0.967,0.751,1.393,1.086c1.129,0.911,2.798,1.421,1.777,2.963c-0.274,0.414-0.463,0.779-0.737,1.192     c-0.524,0.791-0.833,1.83,0.485,2.703c0.791,0.524,2.106,0.583,2.63-0.208c2.119-3.201-1.092-8.414-1.678-12.268     c-0.295-2.092,0.111-4.583,1.309-6.392c0.822-1.242,2.034-2.172,3.598-2.49c1.437-0.292,3.291-0.149,4.685,0.284     c0.337,0.064,0.288-0.189,0.46-0.449c0.126-0.19,1.535-2.723,1.659-2.91c0.499-0.754,1.678,0.243,2.582,0.842     c-0.187-0.124,3.012,1.831,2.912,2.634l-2.044,3.087c-0.223,0.337-0.174,0.59,0.141,0.852c1.758,1.434,2.019,4.15,1.809,5.692     c-0.21,1.542-0.894,2.495-1.791,3.85c-0.499,0.754-1.14,0.656-1.931,0.132l-0.601-0.398c-0.754-0.499-1.407-0.826-2.158-1.323     c-3.237-2.144,1.192-3.598-1.217-5.194c-0.791-0.524-2.296-0.383-2.895,0.522c-1.446,2.183,0.887,6.598,1.994,9.501     C380.304,153.494,379.614,156.992,378.244,159.062z"/>
			<path style="fill:#000E3F;" d="M374.984,104.95c8.118,0,16.325,2.305,23.599,7.122c12.228,8.098,18.957,21.4,19.16,35.052     c0.141,8.342-2.148,16.799-7.104,24.284c-8.238,12.439-21.856,19.178-35.736,19.178c-8.118,0-16.325-2.305-23.599-7.122     c-13.128-8.694-19.897-23.381-19.093-38.055c0.4-7.356,2.675-14.694,7.037-21.281C347.485,111.689,361.103,104.95,374.984,104.95      M374.985,100.651L374.985,100.651c-15.871,0-30.57,7.889-39.321,21.103c-4.612,6.965-7.291,15.064-7.745,23.421     c-0.912,16.64,7.139,32.685,21.012,41.872c7.741,5.127,16.722,7.837,25.973,7.837c15.87,0,30.569-7.889,39.32-21.103     c5.275-7.966,7.979-17.209,7.818-26.73c-0.231-15.553-8.113-29.972-21.085-38.563     C393.215,103.361,384.234,100.651,374.985,100.651L374.985,100.651z"/>
		</g>
	</g>
	<g>
		<g>
			<path style="fill:#FD8A02;" d="M47.182,384.499c-9.369,0-18.725-3.025-26.348-8.519c-6.481-4.671-11.609-10.993-14.828-18.286     c-10.016-22.679,0.287-49.279,22.966-59.295c5.773-2.549,11.875-3.843,18.135-3.843c8.378,0,16.579,2.339,23.716,6.768     c7.727,4.769,13.76,11.7,17.444,20.042c10.016,22.679-0.287,49.279-22.965,59.295C59.534,383.207,53.438,384.499,47.182,384.499z     "/>
			<path style="fill:#FFCF00;" d="M76.195,326.697c7.086,16.045-0.181,34.805-16.225,41.89c-8.666,3.827-18.098,3.463-26.059-0.207     c-6.84-3.11-12.573-8.64-15.832-16.018c-7.086-16.045,0.181-34.805,16.225-41.89c10.588-4.676,22.333-3.1,31.152,3.121     C70.015,316.804,73.785,321.239,76.195,326.697z"/>
			<g style="opacity:0.18;">
				<path style="fill:#000E3F;" d="M22.576,319.437c1.043-1.277,2.18-2.489,3.428-3.602l-8.845-8.477      c-0.992-0.951-2.56-0.91-3.514,0.075c-0.951,0.992-0.917,2.564,0.075,3.514L22.576,319.437z"/>
				<path style="fill:#000E3F;" d="M3.292,342.955l12.253-0.26c-0.166-1.665-0.191-3.324-0.096-4.972l-12.264,0.26      c-1.366,0.025-2.46,1.166-2.432,2.54C0.782,341.893,1.919,342.984,3.292,342.955z"/>
				<path style="fill:#000E3F;" d="M16.732,330.428c0.479-1.592,1.078-3.141,1.797-4.638l-11.437-4.431      c-1.281-0.496-2.722,0.14-3.218,1.421s0.14,2.722,1.421,3.218L16.732,330.428z"/>
				<path style="fill:#000E3F;" d="M18.084,352.371c-0.34-0.768-0.615-1.546-0.888-2.325l-11.23,4.959      c-1.256,0.555-1.825,2.024-1.27,3.28c0.555,1.256,2.024,1.825,3.28,1.27l11.23-4.96      C18.813,353.869,18.423,353.14,18.084,352.371z"/>
				<path style="fill:#000E3F;" d="M70.845,318.401l8.479-8.844c0.951-0.992,0.917-2.564-0.075-3.514      c-0.991-0.954-2.562-0.912-3.515,0.075l-8.491,8.857C68.521,316.017,69.733,317.153,70.845,318.401z"/>
				<path style="fill:#000E3F;" d="M60.891,310.926l4.429-11.438c0.496-1.28-0.14-2.722-1.421-3.218      c-1.281-0.496-2.722,0.14-3.218,1.421l-4.429,11.438C57.843,309.606,59.391,310.207,60.891,310.926z"/>
				<path style="fill:#000E3F;" d="M48.956,307.845l-0.258-12.263c-0.03-1.37-1.166-2.46-2.539-2.432      c-1.361,0.029-2.46,1.166-2.432,2.54l0.259,12.251C45.649,307.774,47.31,307.75,48.956,307.845z"/>
				<path style="fill:#000E3F;" d="M34.309,310.481c0.767-0.339,1.547-0.617,2.326-0.89l-4.958-11.227      c-0.555-1.256-2.024-1.825-3.28-1.27c-1.256,0.555-1.825,2.024-1.27,3.28l4.958,11.227      C32.811,311.209,33.541,310.82,34.309,310.481z"/>
				<path style="fill:#000E3F;" d="M77.55,348.648c-0.479,1.592-1.078,3.142-1.797,4.638l11.438,4.432      c0.64,0.248,1.32,0.213,1.903-0.044c0.582-0.257,1.066-0.736,1.315-1.377c0.496-1.281-0.14-2.722-1.421-3.218L77.55,348.648z"/>
				<path style="fill:#000E3F;" d="M90.992,336.124l-12.253,0.26c0.166,1.664,0.191,3.323,0.093,4.972l12.267-0.26      c0.336-0.007,0.66-0.082,0.951-0.211c0.891-0.393,1.501-1.294,1.481-2.329C93.501,337.186,92.365,336.096,90.992,336.124z"/>
				<path style="fill:#000E3F;" d="M23.437,360.674l-8.478,8.846c-0.951,0.992-0.917,2.564,0.075,3.514      c0.748,0.719,1.831,0.875,2.725,0.48c0.289-0.127,0.557-0.314,0.79-0.555l8.491-8.857      C25.761,363.058,24.549,361.923,23.437,360.674z"/>
				<path style="fill:#000E3F;" d="M71.706,359.64c-1.043,1.276-2.18,2.489-3.429,3.6l8.846,8.478      c0.748,0.719,1.831,0.875,2.725,0.48c0.289-0.128,0.557-0.314,0.79-0.555c0.951-0.992,0.917-2.564-0.075-3.515L71.706,359.64z"/>
				<path style="fill:#000E3F;" d="M86.308,319.524l-11.23,4.959c0.392,0.726,0.781,1.454,1.12,2.223      c0.34,0.768,0.616,1.548,0.889,2.327l11.23-4.959c1.256-0.555,1.825-2.024,1.271-3.28      C89.034,319.538,87.564,318.969,86.308,319.524z"/>
				<path style="fill:#000E3F;" d="M33.392,368.151l-4.429,11.438c-0.496,1.281,0.14,2.722,1.421,3.218      c0.64,0.248,1.321,0.213,1.903-0.044c0.582-0.257,1.067-0.736,1.315-1.377l4.429-11.438      C36.439,369.47,34.891,368.869,33.392,368.151z"/>
				<path style="fill:#000E3F;" d="M45.326,371.23l0.259,12.265c0.03,1.37,1.166,2.46,2.539,2.432      c0.336-0.007,0.657-0.081,0.951-0.211c0.891-0.393,1.502-1.294,1.481-2.329l-0.26-12.253      C48.633,371.301,46.972,371.326,45.326,371.23z"/>
				<path style="fill:#000E3F;" d="M59.974,368.596c-0.767,0.339-1.548,0.616-2.326,0.89l4.958,11.227      c0.555,1.256,2.024,1.825,3.28,1.27c1.256-0.554,1.825-2.024,1.27-3.28l-4.958-11.227      C61.471,367.867,60.741,368.257,59.974,368.596z"/>
			</g>
			<g style="opacity:0.18;">
				<path style="fill:#000E3F;" d="M86.302,322.233c9.552,21.629-0.24,46.909-21.868,56.461c-14.403,6.361-30.422,4.135-42.342-4.46      c3.452-2.854,7.513-4.527,11.819-5.854c7.961,3.67,17.393,4.034,26.059,0.207c16.044-7.086,23.311-25.845,16.225-41.89      c-2.41-5.458-6.18-9.893-10.738-13.104c0.749-3.773,2.216-7.289,4.233-10.445C76.79,307.531,82.675,314.022,86.302,322.233z"/>
			</g>
			<g style="opacity:0.5;">
				<path style="fill:#FD8A02;" d="M76.195,326.697c7.086,16.045-0.181,34.805-16.225,41.89c-8.666,3.827-18.098,3.463-26.059-0.207      c9.624-2.953,20.311-3.988,27.18-11.883c9.635-11.141,4.053-22.958,3.731-35.86c-0.045-2.426,0.154-4.779,0.634-7.044      C70.015,316.804,73.785,321.239,76.195,326.697z"/>
			</g>
		</g>
		<g>
			<path style="fill:#000E3F;" d="M58.427,342.846c0.784,1.776,0.815,3.639-0.322,5.87c-0.161,0.417-1.702,2.625-1.911,2.717     c0.165,0.373,1.091,2.581,1.255,2.951l0.073,0.165c0.293,0.663,0.079,1.299-1.078,1.81c-0.535,0.236-1.095,0.532-1.718,0.807     l-1.154,0.509c-3.017,1.333-1.523-3.668-4.657-3.273c-4.59,0.447-6.04-1.826-7.663-5.503c-0.729-1.651-0.93-2.105,0.971-2.945     c0.622-0.275,1.154-0.409,1.666-0.587c1.377-0.459,2.707-1.589,3.454,0.103c0.201,0.454,0.406,0.81,0.606,1.264     c0.383,0.868,1.091,1.689,2.538,1.05c0.868-0.383,1.627-1.458,1.244-2.326c-1.551-3.511-7.673-3.621-11.235-5.207     c-1.92-0.88-3.798-2.567-4.675-4.551c-0.602-1.362-0.731-2.884-0.155-4.373c0.53-1.367,1.651-2.851,2.768-3.791     c0.236-0.249-0.003-0.344-0.13-0.63c-0.092-0.209-1.465-2.762-1.555-2.967c-0.365-0.827,1.11-1.282,2.102-1.72     c-0.205,0.091,3.167-1.547,3.789-1.03l1.496,3.387c0.163,0.37,0.402,0.465,0.793,0.341c2.156-0.707,4.583,0.54,5.768,1.548     c1.185,1.008,1.618,2.099,2.275,3.585c0.365,0.827-0.063,1.314-0.931,1.697l-0.659,0.291c-0.827,0.366-1.454,0.739-2.278,1.103     c-3.552,1.568-2.386-2.946-5.029-1.778c-0.868,0.383-1.561,1.726-1.123,2.719c1.057,2.395,6.034,2.814,9.075,3.448     C54.851,338.107,57.424,340.576,58.427,342.846z"/>
			<path style="fill:#000E3F;" d="M47.11,296.706c8.01,0,15.84,2.262,22.581,6.443c7.099,4.383,12.985,10.873,16.612,19.085     c9.552,21.629-0.24,46.909-21.868,56.461c-5.617,2.481-11.481,3.656-17.251,3.656c-9.024,0-17.82-2.873-25.091-8.116     c-5.977-4.306-10.928-10.181-14.119-17.408c-9.552-21.629,0.241-46.91,21.868-56.461     C35.462,297.883,41.333,296.706,47.11,296.706 M47.111,292.407L47.111,292.407c-6.563,0-12.958,1.354-19.007,4.026     c-11.51,5.084-20.353,14.346-24.898,26.081c-4.546,11.735-4.249,24.537,0.834,36.048c3.375,7.642,8.748,14.267,15.539,19.159     c7.983,5.756,17.786,8.927,27.604,8.927c6.556,0,12.944-1.353,18.987-4.022c23.764-10.495,34.559-38.366,24.064-62.13     c-3.859-8.74-10.183-16.003-18.285-21.006C64.479,294.858,55.888,292.407,47.111,292.407L47.111,292.407z"/>
		</g>
	</g>
	<g>
		<g>
			<path style="fill:#FFFFFF;" d="M124.757,130.134c-0.277,0-0.556-0.054-0.819-0.163c-0.565-0.233-1.004-0.695-1.208-1.271     c-0.807-2.285-2.396-4.156-5.003-5.884c-1.376-0.919-3.008-1.784-5.295-2.81c-1.273-0.576-2.583-1.126-3.905-1.684     c-2.154-0.91-4.382-1.849-6.522-2.915c-5.552-2.806-11.406-6.189-16.674-11.952C74.357,91.466,69.373,74.491,72.326,59.16     c2.645-13.727,11.221-24.715,24.15-30.944c3.974-1.912,8.035-3.23,12.073-3.918c1.109-0.198,2.281-0.35,3.462-0.445     c1.259-0.117,2.566-0.177,3.855-0.177c22.601,0,42.542,18.377,46.384,42.747c1.234,7.812,0.153,14.736-1.068,20.48     c-0.497,2.355-1.159,4.701-1.8,6.97c-1.865,6.604-3.627,12.845-0.73,17.523c0.32,0.518,0.407,1.147,0.237,1.733     c-0.17,0.585-0.582,1.07-1.13,1.334l-16.031,7.722c-8.024,3.862-16.035,7.735-16.035,7.735     C125.398,130.062,125.078,130.134,124.757,130.134z"/>
			<g style="opacity:0.18;">
				<path style="fill:#000E3F;" d="M160.127,66.757c1.111,7.037,0.298,13.365-1.048,19.698c-1.983,9.41-6.742,18.828-2.255,26.071      c0,0-8.003,3.86-16.029,7.722c-8.027,3.863-16.039,7.735-16.039,7.735c-1.062-3.008-3.165-5.183-5.84-6.958      c16.577-11.901,23.789-30.338,22.034-48.568c-2.498-25.886-21.403-38.069-28.77-46.461      C135.777,23.791,156.391,43.06,160.127,66.757z"/>
				<path style="fill:#000E3F;" d="M84.44,81.103c-3.575-7.648-4.266-17.283,0.426-27.824c3.197-5.4,5.131-8.122,11.697-12.299      c1.383-0.881,2.902,0.945,1.777,2.142c-7.149,7.61-11.846,14.241-12.174,26.855c-0.129,9.62,2.034,11.46-0.248,11.885      C85.298,81.978,84.696,81.65,84.44,81.103z"/>
			</g>
			<g>
				<path style="fill:#915EFD;" d="M154.356,110.407l-1.36,0.658l-3.45,1.665l-20.287,9.756l-3.144,1.52l-0.694,0.331      c-2.758,1.334-3.937,4.663-2.602,7.421l1.834,3.826l4.604,9.541l0.002-0.001l1.82,3.805c1.342,2.755,4.653,3.913,7.4,2.598      c0.011-0.002,0.011-0.002,0.024-0.005l28.939-13.936c0.012-0.002,0.012-0.002,0.021-0.016c2.758-1.329,3.901-4.65,2.572-7.407      l-1.833-3.799l-0.002,0.001l-4.591-9.556l-1.83-3.798C160.442,110.252,157.114,109.073,154.356,110.407z"/>
				<path style="fill:#915EFD;" d="M146.295,162.324c-2.405,0-4.635-1.399-5.68-3.566l-3.107-6.451      c-0.288-0.599-0.284-1.296,0.013-1.891c0.239-0.48,0.647-0.849,1.138-1.042l27.045-13.022c0.322-0.184,0.69-0.285,1.07-0.285      c0.049,0,0.099,0,0.149,0.005c0.77,0.054,1.452,0.515,1.786,1.21l3.104,6.439c1.507,3.139,0.183,6.917-2.952,8.424      l-19.828,9.552C148.168,162.114,147.247,162.324,146.295,162.324z"/>
			</g>
			<g>
				<path style="fill:#4217A6;" d="M161.777,113.01l1.83,3.798l-38.955,18.775l-1.834-3.827c-1.335-2.758-0.156-6.086,2.602-7.421      l0.694-0.331l3.144-1.52l20.286-9.757l3.451-1.664l1.359-0.658C157.114,109.073,160.442,110.252,161.777,113.01z"/>
				<path style="fill:#4217A6;" d="M167.462,137.569c-0.009,0.014-0.009,0.014-0.021,0.017l-28.939,13.936      c-0.013,0.003-0.013,0.003-0.024,0.005c-2.747,1.315-6.058,0.156-7.399-2.597l-1.824-3.814l5.025-2.425l28.896-13.902      l5.025-2.425l1.833,3.8C171.363,132.919,170.219,136.24,167.462,137.569z"/>
				<path style="fill:#4217A6;" d="M165.71,151.278l-15.388,7.412c-1.673-4.148,0.141-8.936,4.228-10.904      C158.636,145.818,163.51,147.384,165.71,151.278z"/>
			</g>
		</g>
		<path style="fill:#000E3F;" d="M173.754,142.797l-2.651-5.492c0.525-0.645,0.931-1.385,1.218-2.197    c0.669-1.934,0.549-4.036-0.358-5.874l-8.239-17.17c-0.884-1.815-2.364-3.128-4.107-3.797c-1.027-3.677,0.31-8.43,1.839-13.803    c0.645-2.317,1.313-4.681,1.839-7.117c1.242-5.946,2.364-13.11,1.075-21.253c-4.012-25.409-24.859-44.561-48.501-44.561    c-1.361,0-2.722,0.048-4.084,0.191c-1.194,0.095-2.436,0.239-3.63,0.454c-4.203,0.716-8.454,2.101-12.609,4.107    c-13.564,6.52-22.543,18.054-25.337,32.477c-3.08,15.976,2.102,33.671,13.54,46.137c5.516,6.042,11.821,9.672,17.289,12.418    c2.221,1.123,4.466,2.054,6.663,2.985c1.29,0.549,2.603,1.098,3.845,1.648c2.197,1.003,3.725,1.815,4.991,2.651    c1.719,1.146,2.913,2.34,3.654,3.677c-0.215,1.505,0,3.009,0.693,4.418l8.263,17.17c1.337,2.722,4.06,4.322,6.901,4.346    l2.627,5.469c1.409,2.913,4.394,4.8,7.618,4.8c1.29,0,2.507-0.287,3.678-0.836l1.29-0.621l17.265-8.334l1.266-0.621    c2.054-0.979,3.582-2.675,4.322-4.824C174.852,147.119,174.733,144.827,173.754,142.797z M118.925,121.018    c-1.696-1.123-3.606-2.078-5.612-2.985c-3.343-1.505-6.973-2.866-10.34-4.537c-5.779-2.937-11.248-6.232-16.048-11.486    C67.391,80.66,68.179,44.243,97.408,30.154c3.845-1.862,7.713-3.08,11.51-3.725c1.099-0.215,2.173-0.334,3.272-0.43    c1.218-0.119,2.46-0.167,3.678-0.167c22.018,0,40.716,18.46,44.25,40.931c1.122,7.021,0.31,13.349-1.051,19.701    c-1.576,7.499-4.919,15.021-3.916,21.421c-0.597,0.119-1.17,0.31-1.743,0.597l-1.337,0.645c-2.651-5.66-5.54-12.608-6.376-17.409    c-1.385-7.618,4.8-14.639,1.17-25.361c-3.582-9.982-16.095-11.057-22.615-3.534c-5.349,0.167-8.597,2.268-10.221,2.913    c-3.104,1.576-5.469,2.985-7.928,5.899c-9.743,0.454-16.812,10.722-11.2,19.773c6.137,9.481,15.498,9.027,20.585,14.83    c3.2,3.653,6.878,10.221,9.695,15.833l-0.693,0.334c-0.812,0.382-1.528,0.907-2.149,1.528    C121.36,122.833,120.214,121.878,118.925,121.018z M128.357,120.541c-2.866-5.922-6.615-12.752-10.101-16.764    c-6.257-6.925-14.925-6.352-19.916-14.447c-3.176-5.421-0.287-10.842,4.848-12.776c-3.606,9.791,3.725,18.937,10.006,17.647    c8.692-1.648,10.149-16.382-1.266-21.468c2.054-1.624,6.997-3.988,9.552-4.609c-1.839,7.307,2.651,16.239,10.722,16.239    c11.51,0,9.91-16.644-2.078-20.752c6.495-3.725,14.471-0.263,13.636,11.654c-0.716,10.507-6.901,11.51,4.824,35.534    L128.357,120.541z M108.728,76.195c4.609,1.17,7.427,6.065,6.949,9.409c-0.239,1.982-1.839,3.893-3.319,4.083    C109.468,90.356,104.358,83.144,108.728,76.195z M126.351,67.765c8,0.955,10.46,9.361,8.167,11.176    c-1.433,1.385-5.277,1.218-7.331-2.149C125.301,73.831,125.11,70.463,126.351,67.765z M135.45,149.865    c-1.027-0.191-1.958-0.86-2.436-1.863l-7.594-15.785l-0.669-1.385c-0.382-0.836-0.43-1.743-0.143-2.603    c0.048-0.095,0.072-0.191,0.119-0.286c0.334-0.74,0.907-1.313,1.624-1.672l28.943-13.922c0.406-0.191,0.836-0.31,1.242-0.31    c0.072-0.024,0.143-0.024,0.215-0.024c1.266,0,2.508,0.716,3.081,1.934l0.502,1.027l7.761,16.119    c0.406,0.812,0.454,1.743,0.143,2.603c-0.048,0.143-0.119,0.286-0.191,0.43c-0.31,0.668-0.836,1.194-1.528,1.505    c-0.024,0.024-0.072,0.048-0.119,0.071l-28.704,13.827c-0.048,0.024-0.096,0.024-0.143,0.048    C136.882,149.913,136.142,149.985,135.45,149.865z M167.927,150.2l-1.29,0.621l-17.242,8.31l-1.289,0.621    c-0.597,0.287-1.194,0.43-1.815,0.43c-1.552,0-3.033-0.883-3.749-2.364l-2.292-4.752l27.343-13.158l2.292,4.752    C170.864,146.737,170.004,149.221,167.927,150.2z"/>
	</g>
	<g>
		<g>
			<path style="fill:#FD8A02;" d="M458.093,220.391c1.614,0.596,2.767,0.958,3.868,1.439c3.655,1.601,5.404,4.555,5.21,8.608     c-0.156,3.255-1.484,6.1-2.992,8.894c-0.64,1.186-1.38,2.338-1.859,3.587c-1.352,3.532,0.37,6.651,4.074,7.488     c1.78,0.402,3.589,0.264,5.39,0.115c2.33-0.193,2.593,0.309,2.939,1.336c0.413,1.228-0.39,2.457-2.104,2.963     c-3.848,1.135-7.772,1.455-11.267-0.901c-5.178-3.491-6.468-9.593-3.267-15.123c1.291-2.231,2.474-4.481,3.164-6.952     c0.83-2.968,0.255-4.085-2.616-5.242c-1.392-0.56-2.858-0.934-4.268-1.454c-2.449-0.904-4.618-2.269-6.062-4.482     c-2.183-3.345-2.2-6.843-0.094-10.207c1.451-2.316,2.638-4.725,3.467-7.313c0.965-3.015,0.443-4.064-2.694-4.903     c-2.024-0.541-4.119-0.844-6.199-1.137c-1.28-0.181-2.261-0.726-3.034-1.726c-0.827-1.07-0.544-2.452,0.63-3.04     c0.958-0.48,1.985-0.804,3.044-0.701c2.988,0.29,6.01,0.51,8.827,1.656c4.72,1.92,6.489,5.588,5.24,10.505     c-0.672,2.646-1.821,5.08-3.094,7.469c-0.211,0.396-0.524,0.736-0.751,1.124c-2.332,3.99-1.655,5.805,2.792,7.465     C457.142,220.12,457.869,220.32,458.093,220.391z"/>
			<path style="fill:#FD8A02;" d="M24.088,190.561c-0.722-1.562-1.282-2.632-1.721-3.751c-1.456-3.715-0.607-7.042,2.394-9.773     c2.41-2.193,5.36-3.269,8.4-4.181c1.291-0.387,2.628-0.679,3.85-1.226c3.453-1.545,4.437-4.968,2.406-8.177     c-0.976-1.542-2.353-2.723-3.734-3.889c-1.785-1.509-1.617-2.05-1.136-3.021c0.575-1.161,2.012-1.463,3.582-0.611     c3.525,1.915,6.528,4.46,7.337,8.597c1.2,6.129-2.199,11.359-8.371,13.011c-2.49,0.667-4.917,1.424-7.151,2.685     c-2.684,1.514-3.067,2.711-1.851,5.558c0.589,1.38,1.363,2.68,1.993,4.045c1.095,2.37,1.666,4.868,1.124,7.454     c-0.818,3.909-3.277,6.397-7.145,7.291c-2.663,0.615-5.205,1.481-7.62,2.727c-2.813,1.452-3.185,2.564-1.557,5.373     c1.05,1.813,2.319,3.507,3.584,5.184c0.778,1.032,1.087,2.111,0.928,3.365c-0.171,1.341-1.347,2.119-2.594,1.707     c-1.018-0.337-1.973-0.833-2.65-1.654c-1.91-2.317-3.893-4.607-5.078-7.408c-1.984-4.694-0.646-8.539,3.712-11.137     c2.345-1.398,4.878-2.309,7.466-3.101c0.429-0.131,0.891-0.151,1.326-0.265c4.469-1.177,5.272-2.94,3.297-7.256     C24.569,191.425,24.196,190.769,24.088,190.561z"/>
			<path style="fill:#FD8A02;" d="M238.953,448.856c0.569-1.624,0.912-2.782,1.376-3.89c1.54-3.681,4.466-5.478,8.521-5.35     c3.257,0.103,6.123,1.385,8.941,2.846c1.197,0.621,2.36,1.342,3.618,1.8c3.554,1.295,6.644-0.478,7.42-4.195     c0.373-1.787,0.206-3.593,0.027-5.391c-0.231-2.326,0.266-2.598,1.287-2.961c1.221-0.434,2.463,0.35,2.997,2.055     c1.198,3.828,1.582,7.747-0.717,11.28c-3.406,5.235-9.486,6.624-15.068,3.513c-2.252-1.255-4.521-2.4-7.003-3.05     c-2.981-0.781-4.089-0.188-5.198,2.702c-0.537,1.401-0.887,2.873-1.384,4.291c-0.863,2.464-2.193,4.654-4.382,6.134     c-3.309,2.237-6.806,2.311-10.205,0.26c-2.339-1.412-4.767-2.56-7.368-3.346c-3.03-0.916-4.071-0.377-4.858,2.773     c-0.508,2.033-0.777,4.133-1.036,6.217c-0.16,1.283-0.689,2.273-1.676,3.061c-1.056,0.844-2.442,0.584-3.05-0.58     c-0.496-0.95-0.836-1.971-0.751-3.032c0.241-2.993,0.412-6.018,1.512-8.853c1.843-4.751,5.481-6.58,10.417-5.412     c2.657,0.629,5.109,1.738,7.518,2.971c0.399,0.204,0.745,0.512,1.137,0.732c4.027,2.266,5.831,1.559,7.418-2.914     C238.697,449.811,238.886,449.08,238.953,448.856z"/>
			<path style="fill:#FD8A02;" d="M467.119,396.908c-0.953,1.432-1.572,2.47-2.295,3.429c-2.403,3.186-5.683,4.203-9.58,3.075     c-3.13-0.905-5.59-2.856-7.959-4.97c-1.006-0.898-1.955-1.884-3.06-2.639c-3.123-2.133-6.555-1.18-8.227,2.23     c-0.804,1.639-1.089,3.43-1.36,5.217c-0.351,2.311-0.9,2.451-1.98,2.55c-1.291,0.118-2.3-0.948-2.395-2.733     c-0.213-4.006,0.384-7.897,3.485-10.752c4.595-4.229,10.83-4.071,15.468,0.323c1.872,1.773,3.787,3.444,6.031,4.688     c2.695,1.494,3.915,1.194,5.705-1.332c0.867-1.225,1.571-2.564,2.403-3.816c1.446-2.174,3.276-3.967,5.763-4.86     c3.76-1.349,7.167-0.556,9.952,2.272c1.917,1.948,3.986,3.66,6.312,5.065c2.71,1.637,3.851,1.372,5.393-1.485     c0.995-1.844,1.775-3.812,2.542-5.767c0.472-1.203,1.23-2.032,2.381-2.552c1.232-0.557,2.511,0.038,2.812,1.316     c0.246,1.044,0.322,2.117-0.023,3.124c-0.974,2.841-1.888,5.729-3.655,8.204c-2.961,4.148-6.938,5.019-11.433,2.667     c-2.419-1.267-4.52-2.948-6.55-4.739c-0.336-0.297-0.595-0.68-0.92-0.991c-3.341-3.192-5.264-2.953-7.909,0.988     C467.604,396.046,467.241,396.707,467.119,396.908z"/>
			<path style="fill:#FD8A02;" d="M309.964,86.949c-0.031-1.72-0.112-2.926-0.062-4.126c0.165-3.987,2.284-6.689,6.13-7.978     c3.089-1.036,6.223-0.83,9.373-0.439c1.338,0.166,2.679,0.438,4.017,0.43c3.782-0.022,6.063-2.758,5.498-6.513     c-0.272-1.805-1.056-3.441-1.849-5.065c-1.026-2.1-0.654-2.528,0.178-3.223c0.994-0.831,2.43-0.528,3.524,0.886     c2.454,3.174,4.176,6.714,3.249,10.825c-1.373,6.092-6.591,9.509-12.906,8.532c-2.547-0.393-5.073-0.678-7.626-0.425     c-3.066,0.304-3.9,1.245-3.935,4.34c-0.017,1.5,0.166,3.003,0.194,4.505c0.047,2.611-0.438,5.126-1.976,7.275     c-2.325,3.248-5.578,4.533-9.478,3.792c-2.685-0.511-5.36-0.743-8.073-0.576c-3.16,0.195-3.948,1.062-3.591,4.289     c0.23,2.083,0.709,4.145,1.19,6.189c0.296,1.259,0.144,2.371-0.507,3.453c-0.697,1.159-2.087,1.396-3.061,0.517     c-0.796-0.719-1.469-1.558-1.758-2.582c-0.815-2.89-1.706-5.786-1.661-8.826c0.076-5.096,2.852-8.075,7.886-8.696     c2.71-0.334,5.395-0.147,8.082,0.172c0.446,0.053,0.876,0.221,1.321,0.291c4.564,0.725,6.009-0.565,5.943-5.311     C310.056,87.934,309.979,87.184,309.964,86.949z"/>
		</g>
		<g>
			<g>
				<path style="fill:#915EFD;" d="M95.201,440.942c1.336,4.932,6.417,7.848,11.349,6.512c4.932-1.336,7.848-6.417,6.512-11.349      c-1.336-4.932-6.417-7.848-11.349-6.512C96.782,430.929,93.866,436.01,95.201,440.942z"/>
			</g>
			<g>
				<path style="fill:#915EFD;" d="M457.376,114.704c1.336,4.932,6.417,7.848,11.349,6.512c4.932-1.336,7.848-6.417,6.512-11.349      s-6.417-7.848-11.349-6.512C458.956,104.691,456.041,109.772,457.376,114.704z"/>
			</g>
			<g>
				<path style="fill:#915EFD;" d="M371.944,483.631c1.336,4.932,6.417,7.848,11.349,6.512c4.932-1.336,7.848-6.417,6.512-11.349      c-1.336-4.932-6.417-7.848-11.349-6.512C373.524,473.618,370.608,478.699,371.944,483.631z"/>
			</g>
			<g>
				<path style="fill:#915EFD;" d="M221.445,43.167c1.336,4.932,6.417,7.848,11.349,6.512c4.932-1.336,7.848-6.417,6.512-11.349      c-1.336-4.932-6.417-7.848-11.349-6.512C223.025,33.154,220.109,38.235,221.445,43.167z"/>
			</g>
			<g>
				<path style="fill:#915EFD;" d="M4.022,87.501c1.336,4.932,6.417,7.848,11.349,6.512c4.932-1.336,7.848-6.417,6.512-11.349      c-1.336-4.932-6.417-7.848-11.349-6.512C5.602,77.488,2.687,82.569,4.022,87.501z"/>
			</g>
		</g>
	</g>
</g>















</svg>
